/* XPM */
static char     *empty[] = {
"64 64 3 1 ",
"  c #000001",
"0 c #FFFFFF",
"g c #666666",
"                                                        00      ",
"                                                                ",
"                                                                ",
"           0000                                                 ",
"            0                                                   ",
"                                                                ",
"                                                                ",
"                           ggggg   gg             0             ",
"                         gggggg   ggggg                         ",
"                       gggggggg  gggggggg                       ",
"     0              gggggggggg  gggggggggggg                    ",
"                  gggggggggggg ggggggggggggggg                  ",
"                gggggggggggg  gggggggggggggggggg                ",
"              ggggggggggggggg  ggggggggggggggg                  ",
"             ggggggggggggggggg gggggggggggggg                   ",
"           ggggggggggggggggggg  ggggggggggggggggggggg         0 ",
"          ggggggggggggggggggg   gggggggggggggggggggggg          ",
"         gggggggggggggggggggggg  gggggggggggggggggggggg         ",
"         ggggggggggggggggggggggg gggggggggggggggg ggggg         ",
"         gggggggggggggggggggggggg ggggggggggggggggggggg         ",
"         gggggggggggggggggggggggggggggggggggggggggggggg         ",
"         gggggggggggggggggggggggggggggggggggggggggggggg         ",
"         ggggggggggggggggggggggg gggggggggggggggggggggg         ",
"         ggggggggggggggggggggggg  ggggggggggggggggggggg         ",
"         ggggggggggggggggggggggg gggggggggggggggggggggg         ",
"         ggggggggggggggggggggggg ggggggggggggggg gggggg         ",
"         ggggggg    ggggggggggggggggggggggggggggggggggg         ",
"         ggggggg     gggggggggggggggggggggggggggggggggg         ",
"         ggggggg gggggggggggggggggggggggggggggggggggggg         ",
"         gggggggggggggggggggggggggggggggggggggggggggggg         ",
"         gggggggggggggggggggggggggggggggggggggggggggggg         ",
"         gggggggggggggggggggggggggggggggggggggggggggggg         ",
"         ggggggggggggggggggggggggggggggggg  ggggggggggg         ",
"         gggggggggggggggggggggggggggggggggggggggggggggg         ",
"         gggggggggggggggggggggggggggggggggggggggggggggg         ",
"         ggggggggggggg  ggggggggggggggggggggggggggggggg         ",
"         gggggggggggggg ggggggggggggggggggggggggggggggg         ",
"         gggggggggggggggggggggggggggggggggggggggggggggg         ",
"         gggggggggggggggggggggggggggggg     ggggg00gggg         ",
"         ggggggggggggggggggggggggggg gg  gg gggg0000ggg         ",
"         ggggggggggggggggggggggggggg      ggggggg00gggg         ",
"         gggggggggggggggggggggggggg        gggggggggggg        0",
"         gggggggggggggggggggggggggggggggg  gggggggggggg         ",
"         gggggggggggggggggggggggggggggggg ggggggggggggg         ",
"         gggggggggggggggggggggggggggggggggggggggggggggg         ",
"         gggggggggggggggggggggggggggggggggggggggggggggg         ",
"0        gggggggggggggggggggggggggggggggggggggggggggggg         ",
"00       gggggggggggggggggggggggggggggggggggggggggggggg         ",
"         gggggggggggggggggggggggggggggggggggggggggggggg         ",
"         ggggggggggggggg   gggggggggggggggggggggggggggg         ",
"         gggggggggggggggggggggggggggggggggggggggggggggg         ",
"         gggggggggggggggggggggggggggggggggggggggggggggg         ",
"         gggggggggggggggggggggggggggggggggggggggggggggg         ",
"         gggggggggggggggggggggggggggggggggggggggggggggg         ",
"         gggggggggggggggggggggggggggggggggggggggggggggg         ",
"         gggggggggggggggggggggggggggggggggggggggggggggg         ",
"         gggggggggggggggggggggggggggggggggggggggggggggg         ",
"    00000000000000000000000000000000000000000000000000000000    ",
"      0000000000000000000000000000000000000000000000000000      ",
"        000000000000000000000000000000000000000000000000        ",
"          00000000000000000000000000000000000000000000          ",
"      0     0000000000000000000000000000000000000000            ",
"                00000000000000000000000000000000                ",
"                                                                "
};

