/* XPM */
static char     *empty[] = {
"64 64 3 1 ",
"  c #000000",
"0 c #FFFFFF",
"c c #FFC0CB",
"                                                                ",
"                                                                ",
"    000000000000000000000000000                                 ",
"   0                           0                                ",
"  0                             0                               ",
"  0                              0                              ",
"  0   0   0 0000 0    000  0     0                              ",
"  0   0   0 0    0    0  0 0     0                              ",
"  0   0   0 0    0    0  0 0     0                              ",
"  0   00000 0000 0    000  0     0                              ",
"  0   0   0 0    0    0    0     0                              ",
"  0   0   0 0    0    0    0     0                              ",
"  0   0   0 0    0    0          0                              ",
"  0   0   0 0000 0000 0    0     0                              ",
"   0                             0        c                     ",
"    0000000000000000000000000    0        c                     ",
"                             0   0        c                     ",
"                              0  0        c                     ",
"                               0 0        c                     ",
"                                00        c                     ",
"                                 0    ccc c                     ",
"                                  0  cccccc                     ",
"                                    ccccccc                     ",
"                                    ccccccc                     ",
"                                    ccccccc                     ",
"                                     cccccc                     ",
"                                      ccccc                     ",
"                                        c c                     ",
"                                       c  c                     ",
"                                      c   c                     ",
"                                      c   c                     ",
"                                     c    c                     ",
"                                     c    c                     ",
"                                    c     c                     ",
"                                          c                     ",
"                                          c                     ",
"                                          c                     ",
"                                         c c                    ",
"                                         c  c                   ",
"                                         c  c                   ",
"                                        c    c                  ",
"                                        c    c                  ",
"                                        c     c                 ",
"                                       c                        ",
"                                                                ",
"                                                                ",
"                                                                ",
"                                                                ",
"                                                                ",
"                                                                ",
"                                                                ",
"                                                                ",
"                                                                ",
"                                                                ",
"                                                                ",
"                                                                ",
"                                                                ",
"                                                                ",
"                                                                ",
"                                                                ",
"                                                                ",
"                                                                ",
"                                                                ",
"                                                                "
};

