/* XPM */
static char	*player[] = {
"128 64 2 1 ",
"  c #000000",
"B c #00FF00",
"                                                                                                                                ",
"                                                                                                                                ",
"                                                                                                                                ",
"                                                                                                                                ",
"                                                                                                                                ",
"                                                                                                                                ",
"                                                        BBBBBBB                                                                 ",
"                                                      BBBBBBBBBBB                                                               ",
"                                                     BBBBBBBBBBBBB                                                              ",
"                                                    BBBBBBBBBBBBBBB                                                             ",
"                                                   BBBBBBBBBBBBBBBBB                                                            ",
"                                                  BBBBBBBBBBBBBBBBBBB                                                           ",
"                                                  BBBBBBBBBBBBBBBBBBB                                                           ",
"                                                 BBBBBBBBBBBBBBBBBBBBB                                                          ",
"                                              B  BBBBBBBBBBBBBBBBBBBBB                                                          ",
"                                              B  BBBBBBBBBBBBBBBBBBBBB                                                          ",
"                                              B  BBBBBBBBBBBBBBBBBBBBB                                                          ",
"                                              B  BBBBBBBBBBBBBBBBBBBBB                                                          ",
"                                              B   BBBBBBBBBBBBBBBBBBBB                                                          ",
"                                              B   BBBBBBBBBBBBBBBBBBBB                                                          ",
"                                              B    BBBBBBBBBBBBBBBBBB                                                           ",
"                                              B     BBBBBBBBBBBBBBBB                                                            ",
"                                              B      BBBBBBBBBBBBB                                                              ",
"                                               BB     BBBBBBBBBBB                                                               ",
"                                                BBB     BBBBBBB                                                                 ",
"                                                   BBB    BBB                                                                   ",
"                                                      BBBBBBB                                                                   ",
"                                                           B BBB              BBBB                                              ",
"                                                           B    BBB        BBB                                                  ",
"                                                           B       BBB  BBB                                                     ",
"                                                           B          BB                                                        ",
"                                                           B                                                                    ",
"                                                           B                                                                    ",
"                                                           B                                                                    ",
"                                                           B                                                                    ",
"                                                           B                                                                    ",
"                                                           B                                                                    ",
"                                                           B                                                                    ",
"                                                 BBBBBBBBBBBB                                                                   ",
"                                            BBBBB            B                                                                  ",
"                                        BBBB                  B                                                                 ",
"                                      BB                       B                                                                ",
"                                                                B                                                               ",
"                                                                 B                                                              ",
"                                                                  B                                                             ",
"                                                                   B                                                            ",
"                                                                    B                                                           ",
"                                                                     B                                                          ",
"                                                                      B                                                         ",
"                                                                       B                                                        ",
"                                                                        B                                                       ",
"                                                                         B                                                      ",
"                                                                                                                                ",
"                                                                                                                                ",
"                                                                                                                                ",
"                                                                                                                                ",
"                                                                                                                                ",
"                                                                                                                                ",
"                                                                                                                                ",
"                                                                                                                                ",
"                                                                                                                                ",
"                                                                                                                                ",
"                                                                                                                                ",
"                                                                                                                                ",
};
