/* XPM */
static char	*player[] = {
"64 64 2 1 ",
"  c #000000",
"0 c #00FF00",
"                                                                ",
"                                                                ",
"                          0000000                               ",
"                        00000000000                             ",
"                       0000000000000                            ",
"                      000000000000000                           ",
"                     00000000000000000                          ",
"                    0000000000000000000                         ",
"                    0000000000000000000                         ",
"                   000000000000000000000                        ",
"                   000000000000000000000                        ",
"                   000000000000000000000                        ",
"                   000000000000000000000                        ",
"                   000000000000000000000                        ",
"                    0000000000000000000                         ",
"                    0000000000000000000                         ",
"                     00000000000000000                          ",
"                      000000000000000                           ",
"                       0000000000000                            ",
"                        00000000000                             ",
"                          0000000                               ",
"                             0                                  ",
"                             0                                  ",
"                            000                                 ",
"                            000                                 ",
"                           0 0 0                                ",
"                           0 0 0                                ",
"                          0  0  0                               ",
"                         0   0   0                              ",
"                        0    0    0                             ",
"                       0     0     0                            ",
"                      0      0      0                           ",
"                     0       0       0                          ",
"                    0        0        0                         ",
"                   0         0         0                        ",
"                  0          0          0                       ",
"                 0           0           0                      ",
"                0            0            0                     ",
"                             0                                  ",
"                             0                                  ",
"                             0                                  ",
"                             0                                  ",
"                            000                                 ",
"                           0   0                                ",
"                           0   0                                ",
"                          0     0                               ",
"                          0     0                               ",
"                         0       0                              ",
"                        0         0                             ",
"                        0         0                             ",
"                       0           0                            ",
"                       0           0                            ",
"                      0             0                           ",
"                     0               0                          ",
"                     0               0                          ",
"                    0                 0                         ",
"                    0                 0                         ",
"                   0                   0                        ",
"                                                                ",
"                                                                ",
"                                                                ",
"                                                                ",
"                                                                ",
"                                                                ",
};
