/* XPM */
static char	*player[] = {
"128 64 2 1 ",
"  c #000000",
"B c #00FF00",
"                                                                                                                                ",
"                                                                                                                                ",
"                                                                                                                                ",
"                                                                                                                                ",
"                                                                                                                                ",
"                                                                                                                                ",
"                                                                                                                                ",
"                                                                                                                                ",
"                                                                                                                                ",
"                                                                                                                                ",
"                                                                                                                                ",
"                                                                                                                                ",
"                                                                                                                                ",
"                                                                                                                                ",
"                                                                                                                                ",
"                                                                                                                                ",
"                                                                                                                                ",
"                                                                                BBBBBB                                          ",
"                                                                              BBBBBBBBBB                                        ",
"                                                                             BBBBBBBBBBBB                                       ",
"                                                                            BBBBBBBBBBBBBB                                      ",
"                                                                           BBBBBBBBBBBBBBBB                                     ",
"                                                                          BBBBBBBBBBBBBBBBBB                                    ",
"                                                                          BBBBBBBBBBBBBBBBBBB                                   ",
"                                                                         BBBBBBBBBBBBBBBBBBBBB                                  ",
"                                                                         BBBBBBBBBBBBBBBBBBBBB                                  ",
"                                                                         BBBBBBBBBBBBBBBBBBBBB                                  ",
"                                                                         BBBBBBBBBBBBBBBBBBBBB                                  ",
"                                                                         BBBBBBBBBBBBBBBBBBBBB                                  ",
"                                                                          BBBBBBBBBBBBBBBBBBB                                   ",
"                                                                          BBBBBBBBBBBBBBBBBBB                                   ",
"                                                                           BBBBBBBBBBBBBBBBBB                                   ",
"                                                                            BBBBBBBBBBBBBBBB                                    ",
"                                                                             BBBBBBBBBBBBB B                                    ",
"                                                                              BBBBBBBBBBB B                                     ",
"                                                                                BBBBBBB   B                                     ",
"                                                                                B BBB    B                                      ",
"                                                                                B BB B  B                                       ",
"                                                                               B B B  B B                                       ",
"                                                                               BB  B   B                                        ",
"                                                                                   B                                            ",
"                                                                                   B                                            ",
"                                                                                   B                                            ",
"                                                                                   B                                            ",
"                                                                                   B                                            ",
"                                                                                   B                                            ",
"                                                                                   B                                            ",
"                                                                                B  B  B                                         ",
"                                                                                BB B BB                                         ",
"                                                                                 BBBB B                                         ",
"                                                                                 B    B                                         ",
"                                                                                  B  B                                          ",
"                                                                                  B  B                                          ",
"                                                                                  B  B                                          ",
"                                                                                   BB                                           ",
"                                                                                   BB                                           ",
"                                                                                   BB                                           ",
"                                                                                   B                                            ",
"                                                                                                                                ",
"                                                                                                                                ",
"                                                                                                                                ",
"                                                                                                                                ",
"                                                                                                                                ",
"                                                                                                                                ",
};
