/* XPM */
static char	*player[] = {
"128 64 2 1 ",
"  c #000000",
"A c #00FF00",
"                                                                                                                                ",
"                                                                                                                                ",
"                                                                                                                                ",
"                                                                                                                                ",
"                                                                                                                                ",
"                                                                                                                                ",
"                                                                                                                                ",
"                                                                                                                                ",
"                                                                                                                                ",
"                                                                                                                                ",                                                                
"                                                                                                                                ",
"                                                                                                                                ",
"                                                                                                                                ",
"                                                                                                                                ",
"                                                                                       AAAAA                                    ",
"                                                                                     AAAAAAAAA                                  ",
"                                                                                    AAAAAAAAAAA                                 ",
"                                                                                   AAAAAAAAAAAAA                                ",
"                                                                                  AAAAAAAAAAAAAAA                               ",
"                                                                                 AAAAAAAAAAAAAAAAA                              ",
"                                                                                 AAAAAAAAAAAAAAAAA                              ",
"                                                                                AAAAAAAAAAAAAAAAAAA                             ",
"                                                                                AAAAAAAAAAAAAAAAAAA                             ",
"                                                                                AAAAAAAAAAAAAAAAAAA                             ",
"                                                                                AAAAAAAAAAAAAAAAAAA                             ",
"                                                                                AAAAAAAAAAAAAAAAAAA                             ",
"                                                                                 AAAAAAAAAAAAAAAAA      A                       ",
"                                                                                 AAAAAAAAAAAAAAAAA     A                        ",
"                                                                                 AAAAAAAAAAAAAAAA    AA                         ",
"                                                                                  AAAAAAAAAAAAAA    AA                          ",
"                                                                                  A AAAAAAAAAAA  AAA                            ",
"                                                                                  A   AAAAAAA  AA                               ",
"                                                                                   A    AAA AAA                                 ",
"                                                                                   A   AAAAA                                    ",
"                                                                                   A  AA A                                      ",
"                                                                                    AA   A                                      ",
"                                                                                    A    A                                      ",
"                                                                                         A                                      ",
"                                                                                         A                                      ",
"                                                                                         A                                      ",
"                                                                                         A                                      ",
"                                                                                         A                                      ",
"                                                                                         A                                      ",
"                                                                                         A                                      ",
"                                                                                       AAAAA                                    ",
"                                                                                     AA     AAA                                 ",
"                                                                                   AA          AA                               ",
"                                                                                  A             A                               ",
"                                                                                 A             A                                ",
"                                                                                 A            A                                 ",
"                                                                                  A          A                                  ",
"                                                                                  A         A                                   ",
"                                                                                  A        A                                    ",
"                                                                                  A                                             ",
"                                                                                   A                                            ",
"                                                                                   A                                            ",
"                                                                                   A                                            ",
"                                                                                   A                                            ",
"                                                                                                                                ",
"                                                                                                                                ",
"                                                                                                                                ",
"                                                                                                                                ",
"                                                                                                                                ",
"                                                                                                                                ",
};
