/* XPM */
static char	*player[] = {
"128 64 2 1 ",
"  c #000000",
"A c #00FF00",
"                                                                                                                                ",
"                                                                                                                                ",
"                                AAAAAAA                                                                                         ",
"                              AAAAAAAAAAA                                                                                       ",
"                             AAAAAAAAAAAAA                                                                                      ",
"                            AAAAAAAAAAAAAAA                                                                                     ",
"                           AAAAAAAAAAAAAAAAA                                                                                    ",
"                          AAAAAAAAAAAAAAAAAAA                                                                                   ",
"                          AAAAAAAAAAAAAAAAAAA                                                                                   ",
"                         AAAAAAAAAAAAAAAAAAAAA                                                                                  ",
"                         AAAAAAAAAAAAAAAAAAAAA                                                                                  ",
"                         AAAAAAAAAAAAAAAAAAAAA                                                                                  ",
"                         AAAAAAAAAAAAAAAAAAAAA                                                                                  ",
"                         AAAAAAAAAAAAAAAAAAAAA                                                                                  ",
"                          AAAAAAAAAAAAAAAAAAA A                                                                                 ",
"                          AAAAAAAAAAAAAAAAAAA A                                                                                 ",
"                           AAAAAAAAAAAAAAAAA A                                                                                  ",
"                            AAAAAAAAAAAAAAA A                                                                                   ",
"                          A  AAAAAAAAAAAAA A                                                                                    ",
"                          A   AAAAAAAAAAA A                                                                                     ",
"                           A    AAAAAAA  A                                                                                      ",
"                            A     AAA   A                                                                                       ",
"                             A   A A A A                                                                                        ",
"                              A A  A  A                                                                                         ",
"                               A   A                                                                                            ",
"                                   A                                                                                            ",
"                                   A                                                                                            ",
"                                   A                                                                                            ",
"                                   A                                                                                            ",
"                                   A                                                                                            ",
"                                   A                                                                                            ",
"                                   A                                                                                            ",
"                                   A    A                                                                                       ",
"                                   A   AA                                                                                       ",
"                                   A   AA                                                                                       ",
"                                   A  A A                                                                                       ",
"                                   A A A                                                                                        ",
"                                  AAA  A                                                                                        ",
"                                 A     A                                                                                        ",
"                                 A    A                                                                                         ",
"                                A     A                                                                                         ",
"                               A      A                                                                                         ",
"                               A                                                                                                ",
"                              A                                                                                                 ",
"                              A                                                                                                 ",
"                             A                                                                                                  ",
"                            A                                                                                                   ",
"                            A                                                                                                   ",
"                           A                                                                                                    ",
"                                                                                                                                ",
"                                                                                                                                ",
"                                                                                                                                ",
"                                                                                                                                ",
"                                                                                                                                ",
"                                                                                                                                ",
"                                                                                                                                ",
"                                                                                                                                ",
"                                                                                                                                ",
"                                                                                                                                ",
"                                                                                                                                ",
"                                                                                                                                ",
"                                                                                                                                ",
"                                                                                                                                ",
"                                                                                                                                ",
};
