/* XPM */
static char	*player[] = {
"128 64 2 1 ",
"  c #000000",
"B c #00FF00",
"                                           BBBBBBB                                                                              ",
"                                         BBBBBBBBBBB                                                                            ",
"                                        BBBBBBBBBBBBB                                                                           ",
"                                       BBBBBBBBBBBBBBB                                                                          ",
"                                      BBBBBBBBBBBBBBBBB                                                                         ",
"                                     BBBBBBBBBBBBBBBBBBB                                                                        ",
"                                     BBBBBBBBBBBBBBBBBBB                                                                        ",
"                                    BBBBBBBBBBBBBBBBBBBBB                                                                       ",
"                                    BBBBBBBBBBBBBBBBBBBBB                                                                       ",
"                                    BBBBBBBBBBBBBBBBBBBBB                                                                       ",
"                                    BBBBBBBBBBBBBBBBBBBBB                                                                       ",
"                                    BBBBBBBBBBBBBBBBBBBBB                                                                       ",
"                                     BBBBBBBBBBBBBBBBBBBB                                                                       ",
"                                     BBBBBBBBBBBBBBBBBBBB                                                                       ",
"                                      BBBBBBBBBBBBBBBBBB                                                                        ",
"                                       BBBBBBBBBBBBBBBB                                                                         ",
"                                        BBBBBBBBBBBBB B                                                                         ",
"                                         BBBBBBBBBBB B                                                                          ",
"                                           BBBBBBB   B                                                                          ",
"                                            BBBB    B                                                                           ",
"                                            BBB B  B                                                                            ",
"                                           BB B  B B                                                                            ",
"                                           BB B   B                                                                             ",
"                                           B  B                                                                                 ",
"                                              B                                                                                 ",
"                                              B                                                                                 ",
"                                              B                                                                                 ",
"                                              B     B                                                                           ",
"                                              B    BB                                                                           ",
"                                          B   B   B B                                                                           ",
"                                         BBB  B  B B                                                                            ",
"                                         B  B B B  B                                                                            ",
"                                        B    BBB   B                                                                            ",
"                                        B          B                                                                            ",
"                                        B          B                                                                            ",
"                                       B          B                                                                             ",
"                                       B          B                                                                             ",
"                                       B          B                                                                             ",
"                                      B                                                                                         ",
"                                      B                                                                                         ",
"                                      B                                                                                         ",
"                                      B                                                                                         ",
"                                                                                                                                ",
"                                                                                                                                ",
"                                                                                                                                ",
"                                                                                                                                ",
"                                                                                                                                ",
"                                                                                                                                ",
"                                                                                                                                ",
"                                                                                                                                ",
"                                                                                                                                ",
"                                                                                                                                ",
"                                                                                                                                ",
"                                                                                                                                ",
"                                                                                                                                ",
"                                                                                                                                ",
"                                                                                                                                ",
"                                                                                                                                ",
"                                                                                                                                ",
"                                                                                                                                ",
"                                                                                                                                ",
"                                                                                                                                ",
"                                                                                                                                ",
"                                                                                                                                ",
};
