/* XPM */
static char	*player[] = {
"128 64 2 1 ",
"  c #000000",
"B c #00FF00",
"                                                                                                                                ",
"                                                                                                                                ",
"                                                                                                                                ",
"                                                                                                                                ",
"                                                                                                                                ",
"                                                                                                                                ",
"                                                                                                                                ",
"                                                                                                                                ",
"                                                                                                                                ",
"                                                                                                                                ",
"                                                                BBBBBBB                                                         ",
"                                                              BBBBBBBBBBB                                                       ",
"                                                             BBBBBBBBBBBBB                                                      ",
"                                                            BBBBBBBBBBBBBBB                                                     ",
"                                                           BBBBBBBBBBBBBBBBB                                                    ",
"                                                          BBBBBBBBBBBBBBBBBBB                                                   ",
"                                                          BBBBBBBBBBBBBBBBBBB                                                   ",
"                                                         BBBBBBBBBBBBBBBBBBBBB                                                  ",
"                                                         BBBBBBBBBBBBBBBBBBBBB                                                  ",
"                                                         BBBBBBBBBBBBBBBBBBBBB                                                  ",
"                                                         BBBBBBBBBBBBBBBBBBBBB                                                  ",
"                                                         BBBBBBBBBBBBBBBBBBBBB                                                  ",
"                                                          BBBBBBBBBBBBBBBBBBBB                                                  ",
"                                                          BBBBBBBBBBBBBBBBBBBB                                                  ",
"                                                  B        BBBBBBBBBBBBBBBBBB                                                   ",
"                                                  B         BBBBBBBBBBBBBBBB                                                    ",
"                                                   B         BBBBBBBBBBBBB                                                      ",
"                                                    B         BBBBBBBBBBB       BB                                              ",                
"                                                     B          BBBBBBB        B                                                ",
"                                                      B           BBB         B                                                 ",
"                                                       B          BBB        B                                                  ",
"                                                        B       BB B BB     B                                                   ",
"                                                         B    BB   B   BB  B                                                    ",
"                                                          B BB     B     BB                                                     ",
"                                                           B       B                                                            ",
"                                                                   B                                                            ",
"                                                                   B                                                            ",
"                                                                   B                                                            ",
"                                                                   B                                                            ",
"                                                                   B                                                            ",
"                                                     BBBBB         B                                                            ",
"                                                    B     BBBBBB   B                                                            ",
"                                                   B            BBBBB                                                           ",                
"                                                  B                  B                                                          ",
"                                                 B                    B                                                         ",
"                                                B                      B                                                        ",
"                                               B                        B                                                       ",
"                                              B                          B                                                      ",
"                                                                          B                                                     ",
"                                                                           B                                                    ",
"                                                                           B                                                    ",
"                                                                            B                                                   ",
"                                                                             B                                                  ",
"                                                                              B                                                 ",
"                                                                               B                                                ",
"                                                                                B                                               ",
"                                                                                 B                                              ",
"                                                                                  BB                                            ",
"                                                                                                                                ",
"                                                                                                                                ",
"                                                                                                                                ",
"                                                                                                                                ",
"                                                                                                                                ",
"                                                                                                                                ",
};
