/* XPM */
static char	*player[] = {
"64 128 2 1 ",
"  c #000000",
"0 c #00FF00",
"                                                                ",
"                                                                ",
"                                                                ",
"                                                                ",
"                                                                ",
"                                                                ",
"                                                                ",
"                                                                ",
"                                                                ",
"                                                                ",
"                                                                ",
"                                                                ",
"                                                                ",
"                                                                ",
"                                                                ",
"                                                                ",
"                                                                ",
"                                                                ",
"                                                                ",
"                                                                ",
"                                                                ",
"                                                                ",
"                                                                ",
"                                                                ",
"                                                                ",
"                                                                ",
"                                                                ",
"                                                                ",
"                                                                ",
"                                                                ",
"                                                                ",
"                                                                ",
"                                                                ",
"                                                                ",
"                                                                ",
"                                                                ",
"                                                                ",
"                                                                ",
"                                                                ",
"                                                                ",
"                          0000000                               ",
"                        00000000000                             ",
"                       0000000000000                            ",
"                      000000000000000                           ",
"                     00000000000000000                          ",
"                    0000000000000000000                         ",
"                    0000000000000000000                         ",
"                   000000000000000000000                        ",
"                   000000000000000000000                        ",
"                   000000000000000000000                        ",
"                   000000000000000000000                        ",
"                   000000000000000000000                        ",
"                    0000000000000000000                         ",
"                    0000000000000000000                         ",
"                     00000000000000000                          ",
"                      000000000000000                           ",
"                       0000000000000                            ",
"                   0    00000000000                             ",
"                   0      0000000                               ",
"                   0         0                                  ",
"                  0          0                                  ",
"                  0       00000000                              ",
"                  0    000   0    000                           ",
"                   0000      0       000                        ",
"                             0          000                     ",
"                             0             0000                 ",
"                             0                                  ",
"                             0                                  ",
"                             0                                  ",
"                             0                                  ",
"                             0                                  ",
"                             0                                  ",
"                             0                                  ",
"                             0                                  ",
"                             0                                  ",
"                             0                                  ",
"                             0                                  ",
"                             0                                  ",
"                             0                                  ",
"               000000000     0                                  ",
"               0        000000000000                            ",
"               0                    00000000                    ",
"               0                           0                    ",
"               0                           0                    ",
"                0                          0                    ",
"                0                          0                    ",
"                0                          0                    ",
"                0                         0                     ",
"                 0                        0                     ",
"                 0                        0                     ",
"                 0                        0                     ",
"                 0                       0                      ",
"                                         0                      ",
"                                         0                      ",
"                                         0                      ",
"                                         0                      ",
"                                                                ",
"                                                                ",
"                                                                ",
"                                                                ",
"                                                                ",
"                                                                ",
"                                                                ",
"                                                                ",
"                                                                ",
"                                                                ",
"                                                                ",
"                                                                ",
"                                                                ",
"                                                                ",
"                                                                ",
"                                                                ",
"                                                                ",
"                                                                ",
"                                                                ",
"                                                                ",
"                                                                ",
"                                                                ",
"                                                                ",
"                                                                ",
"                                                                ",
"                                                                ",
"                                                                ",
"                                                                ",
"                                                                ",
"                                                                ",
"                                                                ",
"                                                                ",
};
